# xmcd CD database file
#
# Track frame offsets:
#	150
#	14930
#	30817
#	45450
#	57815
#	76077
#	88932
#	107910
#	124482
#	138957
#	164295
#
# Disc length: 2445 seconds
#
# Revision: 0
# Processed by: cddbd v1.5.1PL0 Copyright (c) Steve Scherf et al.
# Submitted via: CDex 1.51
#
DISCID=8a098b0b
DTITLE=Ole Reinlund - For Det Var Hit
DYEAR=2003
DGENRE=Jazz
TTITLE0=Martin og ungen
TTITLE1=For det var hit jeg skulle
TTITLE2=De' så møkje me ikkje forstår
TTITLE3=Liten mann ved havet
TTITLE4=To fjøresteinar
TTITLE5=Det bur englar i naustet
TTITLE6=Jeg vet at der finnes
TTITLE7=Vegen uten ord
TTITLE8=Bueskyttervalsen
TTITLE9=Kaldt e det blitt
TTITLE10=Kvilesong
EXTD=YEAR: 2003
EXTT0=
EXTT1=
EXTT2=
EXTT3=
EXTT4=
EXTT5=
EXTT6=
EXTT7=
EXTT8=
EXTT9=
EXTT10=
PLAYORDER=
